#!OML:ASF I:\Actors\actors\Patient Classification 2\Patient 1\Session 1\actor1.ASF
:FULLY-SPECIFIED
:DEGREES
422
root -0.629601 18.7305 5.75339 2.86422 -3.95445 -4.95789
lowerback 6.55111 0.152971 0.317325
upperback 1.56529 0.238131 0.619724
thorax -2.06052 0.117247 0.43974
lowerneck -7.38921 0.52365 1.71691
upperneck 18.825 -0.0572841 2.69312
head 6.96755 0.312133 0.576282
rclavicle -2.17669e-014 1.23246e-014
rhumerus 6.97306 20.7436 -35.2079
rradius 125.945
rwrist -19.8996
rhand 4.15077 -39.3787
rfingers 7.12502
rthumb 29.5596 -67.0448
lclavicle -2.17669e-014 1.23246e-014
lhumerus -29.0685 -23.3634 85.9458
lradius 118.777
lwrist 16.9378
lhand -4.42035 -32.0461
lfingers 7.12502
lthumb 21.3503 -3.20225
rfemur 0 0 0
rtibia 0
rfoot 0 0
rtoes 0
lfemur -6.58018 -4.90432 -9.3934
ltibia 23.7682
lfoot -24.2974 15.1902
ltoes -54.8025
423
root -0.631372 18.7297 5.75741 2.83324 -3.89725 -4.9841
lowerback 6.38854 0.155668 0.322551
upperback 1.49457 0.241867 0.633388
thorax -2.0428 0.11919 0.450849
lowerneck -8.0953 0.534049 1.72662
upperneck 20.369 -0.0848278 2.56687
head 7.59789 0.315117 0.54243
rclavicle -2.28602e-015 7.95139e-015
rhumerus 6.25699 22.5264 -35.9412
rradius 125.743
rwrist -20.0992
rhand 3.85176 -39.9523
rfingers 7.12502
rthumb 29.2742 -67.6686
lclavicle -2.28602e-015 7.95139e-015
lhumerus -29.066 -23.3359 86.1615
lradius 118.417
lwrist 17.4266
lhand -4.34533 -31.8581
lfingers 7.12502
lthumb 21.4223 -3.02244
rfemur 0 0 0
rtibia 0
rfoot 0 0
rtoes 0
lfemur -6.53881 -4.92212 -9.35487
ltibia 23.7637
lfoot -24.312 15.1268
ltoes -54.8167
424
root -0.634359 18.7282 5.76142 2.7933 -3.8427 -4.98911
lowerback 6.2948 0.19752 0.324306
upperback 1.32387 0.2979 0.61059
thorax -2.16639 0.147173 0.421931
lowerneck -8.38336 0.489238 1.82353
upperneck 21.6404 -0.169227 2.38869
head 8.07302 0.285114 0.467829
rclavicle 7.05686e-015 -1.98785e-015
rhumerus 5.40511 24.258 -36.7519
rradius 125.335
rwrist -20.0672
rhand 3.52266 -40.3675
rfingers 7.12502
rthumb 28.9599 -68.1382
lclavicle 7.05686e-015 -1.98785e-015
lhumerus -29.3023 -23.4401 86.4695
lradius 118.089
lwrist 17.8217
lhand -4.29957 -31.7278
lfingers 7.12502
lthumb 21.4663 -2.89714
rfemur 0 0 0
rtibia 0
rfoot 0 0
rtoes 0
lfemur -6.49269 -4.99107 -9.3427
ltibia 23.7688
lfoot -24.3666 15.1113
ltoes -54.8732
425
root -0.636921 18.7266 5.76485 2.75426 -3.80852 -4.99952
lowerback 6.23665 0.235395 0.307926
upperback 1.15015 0.348359 0.614553
thorax -2.31315 0.1725 0.431015
lowerneck -8.59122 0.462405 1.92494
upperneck 22.7386 -0.205906 2.14778
head 8.48172 0.268561 0.373234
rclavicle -1.48095e-014 -7.95139e-016
rhumerus 4.42697 25.9643 -37.7624
rradius 124.88
rwrist -19.8975
rhand 3.14982 -40.6511
rfingers 7.12502
rthumb 28.6037 -68.4823
lclavicle -1.48095e-014 -7.95139e-016
lhumerus -29.5545 -23.4486 86.7559
lradius 117.776
lwrist 17.9504
lhand -4.05973 -31.7424
lfingers 7.12502
lthumb 21.6966 -2.93824
rfemur 0 0 0
rtibia 0
rfoot 0 0
rtoes 0
lfemur -6.44798 -5.03072 -9.32642
ltibia 23.7735
lfoot -24.3801 15.1207
ltoes -54.9043
426
root -0.639398 18.7252 5.7673 2.7158 -3.78873 -5.0273
lowerback 6.16684 0.261539 0.282404
upperback 1.0505 0.382958 0.657866
thorax -2.37743 0.190119 0.487173
lowerneck -8.94196 0.457504 2.08733
upperneck 23.7303 -0.182701 1.7435
head 8.88614 0.267311 0.217044
rclavicle -1.16786e-014 1.70955e-014
rhumerus 3.41496 27.4213 -38.9658
rradius 124.46
rwrist -19.7803
rhand 2.8656 -40.8848
rfingers 7.12502
rthumb 28.3321 -68.7615
lclavicle -1.16786e-014 1.70955e-014
lhumerus -29.6655 -23.4148 86.9783
lradius 117.471
lwrist 18.073
lhand -3.86068 -31.9049
lfingers 7.12502
lthumb 21.8877 -3.12291
rfemur 0 0 0
rtibia 0
rfoot 0 0
rtoes 0
lfemur -6.40419 -5.03766 -9.2881
ltibia 23.7773
lfoot -24.3611 15.1157
ltoes -54.9074
427
root -0.641947 18.7245 5.76939 2.68213 -3.75569 -5.0474
lowerback 6.21973 0.304802 0.32336
upperback 0.873906 0.445394 0.666847
thorax -2.58902 0.220964 0.467617
lowerneck -9.16797 0.418114 2.18103
upperneck 24.6292 -0.209731 1.4467
head 9.2407 0.24429 0.100788
rclavicle 5.81445e-015 -1.86858e-014
rhumerus 3.50548 28.9207 -39.1464
rradius 123.98
rwrist -20.2984
rhand 2.12183 -41.8656
rfingers 7.12502
rthumb 27.6211 -69.8581
lclavicle 5.81445e-015 -1.86858e-014
lhumerus -29.8891 -23.5007 87.257
lradius 117.172
lwrist 18.1399
lhand -3.87357 -32.2312
lfingers 7.12502
lthumb 21.8754 -3.44774
rfemur 0 0 0
rtibia 0
rfoot 0 0
rtoes 0
lfemur -6.37267 -5.06739 -9.26088
ltibia 23.7856
lfoot -24.365 15.1111
ltoes -54.9351
428
root -0.643628 18.7245 5.7712 2.66865 -3.72461 -5.05454
lowerback 6.42067 0.361915 0.444979
upperback 0.572927 0.532731 0.620768
thorax -3.01072 0.2626 0.342312
lowerneck -9.25137 0.33703 2.13824
upperneck 25.5256 -0.31719 1.37217
head 9.57235 0.193397 0.073701
rclavicle 1.42131e-014 8.34896e-015
rhumerus 2.78337 30.1075 -40.1028
rradius 123.436
rwrist -20.33
rhand 1.70146 -42.5248
rfingers 7.12502
rthumb 27.219 -70.5811
lclavicle 1.42131e-014 8.34896e-015
lhumerus -30.2948 -23.6818 87.5685
lradius 116.882
lwrist 18.0101
lhand -3.94733 -32.5787
lfingers 7.12502
lthumb 21.8045 -3.78698
rfemur 0 0 0
rtibia 0
rfoot 0 0
rtoes 0
lfemur -6.36027 -5.08434 -9.25009
ltibia 23.7913
lfoot -24.3718 15.1085
ltoes -54.9504
429
root -0.64456 18.7241 5.77228 2.65318 -3.69424 -5.04087
lowerback 6.33673 0.369016 0.39434
upperback 0.528651 0.539868 0.669779
thorax -3.01039 0.267108 0.421003
lowerneck -9.70272 0.317302 2.03223
upperneck 26.3445 -0.31848 1.23781
head 9.95201 0.179084 0.0476659
rclavicle 1.01877e-014 7.95139e-015
rhumerus 2.29486 30.8082 -41.1252
rradius 122.787
rwrist -19.8908
rhand 1.30175 -42.8537
rfingers 7.12502
rthumb 26.8366 -70.9693
lclavicle 1.01877e-014 7.95139e-015
lhumerus -30.2598 -23.6387 87.7431
lradius 116.581
lwrist 17.8714
lhand -3.98868 -32.8154
lfingers 7.12502
lthumb 21.7648 -4.01906
rfemur 0 0 0
rtibia 0
rfoot 0 0
rtoes 0
lfemur -6.34285 -5.10862 -9.26356
ltibia 23.7869
lfoot -24.3677 15.1209
ltoes -54.9509
430
root -0.645234 18.7235 5.77284 2.62984 -3.63677 -5.02215
lowerback 5.93833 0.330184 0.167353
upperback 0.784199 0.472466 0.834973
thorax -2.527 0.236747 0.72724
lowerneck -10.5778 0.374448 1.89548
upperneck 27.056 -0.190135 1.03106
head 10.3815 0.211853 0.0160496
rclavicle 3.52843e-015 1.03368e-014
rhumerus 2.46915 31.1342 -41.7867
rradius 122.039
rwrist -19.067
rhand 0.717896 -42.8341
rfingers 7.12502
rthumb 26.2778 -71.0342
lclavicle 3.52843e-015 1.03368e-014
lhumerus -29.6992 -23.3626 87.7817
lradius 116.274
lwrist 17.8078
lhand -3.96019 -33.0148
lfingers 7.12502
lthumb 21.7922 -4.22169
rfemur 0 0 0
rtibia 0
rfoot 0 0
rtoes 0
lfemur -6.32849 -5.15273 -9.28032
ltibia 23.7789
lfoot -24.369 15.1161
ltoes -54.9605
431
root -0.646124 18.7234 5.77274 2.60734 -3.58182 -5.01942
lowerback 5.69022 0.316154 0.0300969
upperback 0.894435 0.445714 0.951475
thorax -2.27651 0.224534 0.927726
lowerneck -11.1055 0.398149 1.74053
upperneck 27.6465 -0.121343 0.947929
head 10.7043 0.225037 0.0236789
rclavicle 5.86415e-015 1.31198e-014
rhumerus 2.35176 31.3992 -42.6472
rradius 121.238
rwrist -17.613
rhand 0.0184768 -42.4446
rfingers 7.12502
rthumb 25.6081 -70.7428
lclavicle 5.86415e-015 1.31198e-014
lhumerus -29.4368 -23.1921 87.8664
lradius 116.05
lwrist 17.7451
lhand -3.86251 -33.1766
lfingers 7.12502
lthumb 21.886 -4.39441
rfemur 0 0 0
rtibia 0
rfoot 0 0
rtoes 0
lfemur -6.32027 -5.17581 -9.27508
ltibia 23.7722
lfoot -24.3579 15.0717
ltoes -54.9249
432
root -0.646715 18.7236 5.77198 2.57899 -3.55186 -5.03111
lowerback 5.9315 0.349938 0.18804
upperback 0.589392 0.503271 0.882438
thorax -2.72448 0.252565 0.761537
lowerneck -10.9018 0.346006 1.7727
upperneck 28.1241 -0.179855 0.861356
head 10.8427 0.194997 -0.0194631
rclavicle 2.6339e-015 3.57812e-015
rhumerus 1.36397 31.8151 -44.0888
rradius 120.47
rwrist -15.6442
rhand -0.709387 -41.824
rfingers 7.12502
rthumb 24.9107 -70.2206
lclavicle 2.6339e-015 3.57812e-015
lhumerus -29.9392 -23.3285 88.0407
lradius 115.94
lwrist 17.6369
lhand -3.72333 -33.3866
lfingers 7.12502
lthumb 22.0196 -4.62006
rfemur 0 0 0
rtibia 0
rfoot 0 0
rtoes 0
lfemur -6.2959 -5.21364 -9.26052
ltibia 23.7623
lfoot -24.3561 15.0362
ltoes -54.8449
